# xmcd CD database file
#
# Track frame offsets:
#	150
#	25518
#	52411
#	80257
#	113314
#	134923
#	152162
#
# Disc length: 2459 seconds
#
# Revision: 0
# Processed by: cddbd v1.5.2PL0 Copyright (c) Steve Scherf et al.
# Submitted via: CDex 1.70
#
DISCID=54099907
DTITLE=James Love - Invitations
DYEAR=2004
DGENRE=Jazz
TTITLE0=Invitation
TTITLE1=The Look Of Love
TTITLE2=Blue Moon
TTITLE3=My Funny Valentine
TTITLE4=Stella By Starlight
TTITLE5=Unforgettable
TTITLE6=Sack Full Of Dreams
EXTD=YEAR: 2004
EXTT0=
EXTT1=
EXTT2=
EXTT3=
EXTT4=
EXTT5=
EXTT6=
PLAYORDER=
